<svg id="Picture" xmlns="http://www.w3.org/2000/svg" viewBox="0 0 112.64 147.67"><defs><style>.cls-1{fill:none;stroke:#a7a9ac;stroke-miterlimit:10;stroke-width:0.5px;}.cls-2{fill:#6d6e71;fill-rule:evenodd;}</style></defs><title>US_spending_forces</title><circle id="_596.02" data-name="596.02" class="cls-1" cx="56.32" cy="56.32" r="56.07"/><path class="cls-2" d="M25.23,133.85h0.08a0.19,0.19,0,0,1,.18.17v0.12l-0.05,0v0.09a0.14,0.14,0,0,1,0,.06h0.09a0.25,0.25,0,0,1,.07.08,1.32,1.32,0,0,1,.27.57,1.45,1.45,0,0,0,.23-0.16h0.09l0,0.07a1,1,0,0,0,.51-0.23h0a0.65,0.65,0,0,1,.05.08l-0.7.24a0.3,0.3,0,0,1,0,.06,0.4,0.4,0,0,1-.22.24l-0.14-.08a0.13,0.13,0,0,0-.15.16,2.1,2.1,0,0,1,.16.15,2,2,0,0,1-.05.29V136s0,0.06,0,.09l0,0.15a0.56,0.56,0,0,1,.05.1v0.19a1.67,1.67,0,0,0,.14.47,0.4,0.4,0,0,0-.06.06,0.79,0.79,0,0,0,.22.27s0,0-.07.05l-0.23-.05v-0.15A0.51,0.51,0,0,1,25.7,137c-0.11,0-.17-0.07-0.24-0.43l0-.16c-0.12-.31-0.05-0.54-0.21-0.54a0.81,0.81,0,0,0-.21.45l0,0.33a0.92,0.92,0,0,0-.1.15v0.09a1.11,1.11,0,0,0-.07.18v0.17l-0.31.05a0.1,0.1,0,0,1,0-.08,0.45,0.45,0,0,1,.19-0.13l0.11-.6a0.76,0.76,0,0,1-.05-0.14l0.08-.27v-0.26l0.07-.25v0h0l-0.38.27a0.13,0.13,0,0,1-.08-0.12V135.6c0-.11.46-0.16,0.49-0.28h0l-0.18,0a0.87,0.87,0,0,1-.2-0.17V135a5,5,0,0,1,.3-0.46l0.18-.22c0.05,0,.16,0,0.16-0.13a0.13,0.13,0,0,0-.08,0V134A0.24,0.24,0,0,1,25.23,133.85Z" transform="translate(-2.77 -19.9)"/><path class="cls-2" d="M27.61,133.85h0.08a0.19,0.19,0,0,1,.17.17v0.12l-0.05,0v0.09a0.13,0.13,0,0,1,0,.06h0.09a0.27,0.27,0,0,1,.07.08,1.35,1.35,0,0,1,.27.57,1.51,1.51,0,0,0,.23-0.16h0.09l0,0.07a1,1,0,0,0,.51-0.23h0a0.63,0.63,0,0,1,.05.08l-0.7.24a0.39,0.39,0,0,1,0,.06,0.4,0.4,0,0,1-.22.24l-0.14-.08a0.13,0.13,0,0,0-.16.16,2.1,2.1,0,0,1,.16.15,2,2,0,0,1-.05.29V136s0,0.06,0,.09l0,0.15a0.56,0.56,0,0,1,.05.1v0.19a1.66,1.66,0,0,0,.14.47,0.4,0.4,0,0,0-.06.06,0.79,0.79,0,0,0,.22.27s0,0-.07.05l-0.23-.05v-0.15a0.51,0.51,0,0,1-.05-0.16c-0.11,0-.17-0.07-0.25-0.43l0-.16c-0.12-.31-0.05-0.54-0.21-0.54a0.81,0.81,0,0,0-.21.45l0,0.33a0.88,0.88,0,0,0-.1.15v0.09a1.11,1.11,0,0,0-.07.18v0.17l-0.31.05a0.1,0.1,0,0,1,0-.08,0.44,0.44,0,0,1,.19-0.13l0.11-.6a0.76,0.76,0,0,1-.05-0.14l0.08-.27v-0.26l0.07-.25v0h0l-0.38.27a0.13,0.13,0,0,1-.08-0.12V135.6c0-.11.46-0.16,0.49-0.28h0l-0.18,0a0.88,0.88,0,0,1-.2-0.17V135a4.92,4.92,0,0,1,.3-0.46l0.18-.22c0.05,0,.16,0,0.16-0.13a0.14,0.14,0,0,0-.08,0V134A0.24,0.24,0,0,1,27.61,133.85Z" transform="translate(-2.77 -19.9)"/><path class="cls-2" d="M30,133.85h0.08a0.19,0.19,0,0,1,.17.17v0.12l-0.05,0v0.09a0.14,0.14,0,0,1,0,.06h0.09a0.26,0.26,0,0,1,.07.08,1.34,1.34,0,0,1,.27.57,1.51,1.51,0,0,0,.23-0.16h0.09l0,0.07a1,1,0,0,0,.51-0.23h0a0.64,0.64,0,0,1,.05.08l-0.7.24a0.36,0.36,0,0,1,0,.06,0.4,0.4,0,0,1-.22.24l-0.14-.08a0.13,0.13,0,0,0-.16.16,2.1,2.1,0,0,1,.16.15,2,2,0,0,1-.05.29V136s0,0.06,0,.09l0,0.15a0.55,0.55,0,0,1,.05.1v0.19a1.66,1.66,0,0,0,.14.47,0.4,0.4,0,0,0-.06.06,0.79,0.79,0,0,0,.22.27s0,0-.07.05l-0.23-.05v-0.15a0.53,0.53,0,0,1-.05-0.16c-0.11,0-.17-0.07-0.24-0.43l0-.16c-0.12-.31-0.05-0.54-0.21-0.54a0.82,0.82,0,0,0-.21.45l0,0.33a0.92,0.92,0,0,0-.1.15v0.09a1.11,1.11,0,0,0-.07.18v0.17l-0.31.05a0.1,0.1,0,0,1,0-.08,0.45,0.45,0,0,1,.19-0.13l0.11-.6a0.82,0.82,0,0,1-.05-0.14l0.08-.27v-0.26l0.07-.25v0h0l-0.38.27a0.13,0.13,0,0,1-.08-0.12V135.6c0-.11.46-0.16,0.49-0.28h0l-0.18,0a0.86,0.86,0,0,1-.2-0.17V135a5,5,0,0,1,.3-0.46l0.18-.22c0.05,0,.16,0,0.16-0.13a0.14,0.14,0,0,0-.08,0V134A0.24,0.24,0,0,1,30,133.85Z" transform="translate(-2.77 -19.9)"/><path class="cls-2" d="M32.36,133.85h0.08a0.19,0.19,0,0,1,.17.17v0.12l-0.05,0v0.09a0.14,0.14,0,0,1,0,.06h0.09a0.24,0.24,0,0,1,.07.08A1.33,1.33,0,0,1,33,135a1.45,1.45,0,0,0,.23-0.16h0.09l0,0.07a1,1,0,0,0,.51-0.23h0a1,1,0,0,1,.05.08l-0.7.24a0.39,0.39,0,0,1,0,.06,0.4,0.4,0,0,1-.22.24l-0.14-.08a0.13,0.13,0,0,0-.16.16,2.1,2.1,0,0,1,.16.15,2,2,0,0,1-.05.29V136s0,0.06,0,.09l0,0.15a0.61,0.61,0,0,1,.05.1v0.19A1.67,1.67,0,0,0,33,137a0.4,0.4,0,0,0-.06.06,0.79,0.79,0,0,0,.22.27s0,0-.06.05l-0.23-.05v-0.15a0.5,0.5,0,0,1-.05-0.16c-0.11,0-.17-0.07-0.24-0.43l0-.16c-0.12-.31-0.05-0.54-0.21-0.54a0.81,0.81,0,0,0-.21.45l0,0.33a0.88,0.88,0,0,0-.1.15v0.09a1.1,1.1,0,0,0-.07.18v0.17l-0.31.05a0.1,0.1,0,0,1,0-.08,0.44,0.44,0,0,1,.19-0.13l0.11-.6a0.8,0.8,0,0,1-.05-0.14l0.08-.27v-0.26l0.07-.25v0h0l-0.38.27a0.13,0.13,0,0,1-.08-0.12V135.6c0-.11.46-0.16,0.49-0.28h0l-0.18,0a0.88,0.88,0,0,1-.2-0.17V135a4.83,4.83,0,0,1,.3-0.46c0.1-.11.17-0.21,0.18-0.22s0.16,0,.16-0.13a0.14,0.14,0,0,0-.08,0V134A0.24,0.24,0,0,1,32.36,133.85Z" transform="translate(-2.77 -19.9)"/><path class="cls-2" d="M34.74,133.85h0.08A0.19,0.19,0,0,1,35,134v0.12l-0.05,0v0.09a0.14,0.14,0,0,1,0,.06H35a0.24,0.24,0,0,1,.07.08,1.32,1.32,0,0,1,.27.57,1.43,1.43,0,0,0,.23-0.16h0.09l0,0.07a1,1,0,0,0,.51-0.23h0a0.73,0.73,0,0,1,.05.08l-0.7.24a0.3,0.3,0,0,1,0,.06,0.4,0.4,0,0,1-.22.24l-0.14-.08a0.13,0.13,0,0,0-.15.16,2.1,2.1,0,0,1,.16.15,2,2,0,0,1-.05.29V136s0,0.06,0,.09l0,0.15a0.58,0.58,0,0,1,.05.1v0.19a1.67,1.67,0,0,0,.14.47,0.4,0.4,0,0,0-.06.06,0.79,0.79,0,0,0,.22.27s0,0-.06.05l-0.23-.05v-0.15a0.5,0.5,0,0,1-.05-0.16C35.1,137,35,137,35,136.6l0-.16c-0.12-.31-0.05-0.54-0.21-0.54a0.82,0.82,0,0,0-.21.45l0,0.33a0.92,0.92,0,0,0-.1.15v0.09a1.1,1.1,0,0,0-.07.18v0.17l-0.31.05a0.1,0.1,0,0,1,0-.08,0.44,0.44,0,0,1,.19-0.13l0.11-.6a0.78,0.78,0,0,1-.05-0.14l0.08-.27v-0.26l0.07-.25v0h0l-0.38.27a0.13,0.13,0,0,1-.08-0.12V135.6c0-.11.46-0.16,0.49-0.28h0l-0.18,0a0.88,0.88,0,0,1-.2-0.17V135a4.71,4.71,0,0,1,.3-0.46c0.1-.11.17-0.21,0.18-0.22s0.16,0,.16-0.13a0.14,0.14,0,0,0-.08,0V134A0.24,0.24,0,0,1,34.74,133.85Z" transform="translate(-2.77 -19.9)"/><path class="cls-2" d="M25.23,130h0.08a0.19,0.19,0,0,1,.18.18v0.12l-0.05,0v0.09a0.15,0.15,0,0,1,0,.06h0.09a0.25,0.25,0,0,1,.07.08,1.32,1.32,0,0,1,.27.57,1.45,1.45,0,0,0,.23-0.16h0.09l0,0.07a1,1,0,0,0,.51-0.23h0a0.73,0.73,0,0,1,.05.08l-0.7.24a0.3,0.3,0,0,1,0,.06,0.39,0.39,0,0,1-.22.24l-0.14-.08a0.13,0.13,0,0,0-.15.16s0.16,0.12.16,0.15a2,2,0,0,1-.05.29v0.21s0,0.06,0,.09l0,0.15a0.52,0.52,0,0,1,.05.1v0.19a1.67,1.67,0,0,0,.14.47,0.48,0.48,0,0,0-.06.06,0.81,0.81,0,0,0,.22.27s0,0-.07.05l-0.23-.05v-0.15a0.5,0.5,0,0,1-.05-0.16c-0.11,0-.17-0.07-0.24-0.43l0-.16c-0.12-.31-0.05-0.54-0.21-0.54a0.81,0.81,0,0,0-.21.45l0,0.33a1,1,0,0,0-.1.15v0.09a1.11,1.11,0,0,0-.07.18v0.17l-0.31.05a0.1,0.1,0,0,1,0-.08,0.46,0.46,0,0,1,.19-0.13l0.11-.6a0.76,0.76,0,0,1-.05-0.14l0.08-.27V132l0.07-.25v0h0l-0.38.27a0.13,0.13,0,0,1-.08-0.12v-0.14c0-.11.46-0.16,0.49-0.28h0l-0.18,0a0.87,0.87,0,0,1-.2-0.17V131.2a5.16,5.16,0,0,1,.3-0.46l0.18-.22c0.05,0,.16,0,0.16-0.13a0.14,0.14,0,0,0-.08,0V130.2A0.24,0.24,0,0,1,25.23,130Z" transform="translate(-2.77 -19.9)"/><path class="cls-2" d="M27.61,130h0.08a0.19,0.19,0,0,1,.17.18v0.12l-0.05,0v0.09a0.14,0.14,0,0,1,0,.06h0.09a0.27,0.27,0,0,1,.07.08,1.35,1.35,0,0,1,.27.57,1.51,1.51,0,0,0,.23-0.16h0.09l0,0.07a1,1,0,0,0,.51-0.23h0a0.71,0.71,0,0,1,.05.08l-0.7.24a0.19,0.19,0,0,1-.19.3l-0.14-.08a0.13,0.13,0,0,0-.16.16s0.16,0.12.16,0.15a2,2,0,0,1-.05.29v0.21s0,0.06,0,.09l0,0.15a0.52,0.52,0,0,1,.05.1v0.19a1.66,1.66,0,0,0,.14.47,0.48,0.48,0,0,0-.06.06,0.81,0.81,0,0,0,.22.27s0,0-.07.05l-0.23-.05v-0.15a0.5,0.5,0,0,1-.05-0.16c-0.11,0-.17-0.07-0.25-0.43l0-.16c-0.12-.31-0.05-0.54-0.21-0.54a0.81,0.81,0,0,0-.21.45l0,0.33a1,1,0,0,0-.1.15v0.09a1.11,1.11,0,0,0-.07.18v0.17l-0.31.05a0.1,0.1,0,0,1,0-.08,0.46,0.46,0,0,1,.19-0.13l0.11-.6a0.76,0.76,0,0,1-.05-0.14l0.08-.27V132l0.07-.25v0h0l-0.38.27a0.13,0.13,0,0,1-.08-0.12v-0.14c0-.11.46-0.16,0.49-0.28h0l-0.18,0a0.88,0.88,0,0,1-.2-0.17V131.2a5.1,5.1,0,0,1,.3-0.46l0.18-.22c0.05,0,.16,0,0.16-0.13a0.15,0.15,0,0,0-.08,0V130.2A0.24,0.24,0,0,1,27.61,130Z" transform="translate(-2.77 -19.9)"/><path class="cls-2" d="M30,130h0.08a0.19,0.19,0,0,1,.17.18v0.12l-0.05,0v0.09a0.14,0.14,0,0,1,0,.06h0.09a0.26,0.26,0,0,1,.07.08,1.34,1.34,0,0,1,.27.57,1.51,1.51,0,0,0,.23-0.16h0.09l0,0.07a1,1,0,0,0,.51-0.23h0a0.72,0.72,0,0,1,.05.08l-0.7.24a0.36,0.36,0,0,1,0,.06,0.39,0.39,0,0,1-.22.24l-0.14-.08a0.13,0.13,0,0,0-.16.16s0.16,0.12.16,0.15a2,2,0,0,1-.05.29v0.21s0,0.06,0,.09l0,0.15a0.51,0.51,0,0,1,.05.1v0.19a1.66,1.66,0,0,0,.14.47,0.48,0.48,0,0,0-.06.06,0.81,0.81,0,0,0,.22.27s0,0-.07.05l-0.23-.05v-0.15a0.52,0.52,0,0,1-.05-0.16c-0.11,0-.17-0.07-0.24-0.43l0-.16c-0.12-.31-0.05-0.54-0.21-0.54a0.82,0.82,0,0,0-.21.45l0,0.33a1,1,0,0,0-.1.15v0.09a1.11,1.11,0,0,0-.07.18v0.17l-0.31.05a0.1,0.1,0,0,1,0-.08,0.46,0.46,0,0,1,.19-0.13l0.11-.6a0.82,0.82,0,0,1-.05-0.14l0.08-.27V132l0.07-.25v0h0l-0.38.27a0.13,0.13,0,0,1-.08-0.12v-0.14c0-.11.46-0.16,0.49-0.28h0l-0.18,0a0.86,0.86,0,0,1-.2-0.17V131.2a5.13,5.13,0,0,1,.3-0.46l0.18-.22c0.05,0,.16,0,0.16-0.13a0.14,0.14,0,0,0-.08,0V130.2A0.24,0.24,0,0,1,30,130Z" transform="translate(-2.77 -19.9)"/><path class="cls-2" d="M32.36,130h0.08a0.19,0.19,0,0,1,.17.18v0.12l-0.05,0v0.09a0.14,0.14,0,0,1,0,.06h0.09a0.24,0.24,0,0,1,.07.08,1.33,1.33,0,0,1,.27.57A1.45,1.45,0,0,0,33.2,131h0.09l0,0.07a1,1,0,0,0,.51-0.23h0s0,0,.05.08l-0.7.24a0.19,0.19,0,0,1-.19.3l-0.14-.08a0.13,0.13,0,0,0-.16.16s0.16,0.12.16,0.15a2,2,0,0,1-.05.29v0.21s0,0.06,0,.09l0,0.15a0.56,0.56,0,0,1,.05.1v0.19a1.67,1.67,0,0,0,.14.47,0.48,0.48,0,0,0-.06.06,0.81,0.81,0,0,0,.22.27s0,0-.06.05l-0.23-.05v-0.15a0.49,0.49,0,0,1-.05-0.16c-0.11,0-.17-0.07-0.24-0.43l0-.16c-0.12-.31-0.05-0.54-0.21-0.54a0.81,0.81,0,0,0-.21.45l0,0.33a1,1,0,0,0-.1.15v0.09a1.1,1.1,0,0,0-.07.18v0.17l-0.31.05a0.1,0.1,0,0,1,0-.08,0.45,0.45,0,0,1,.19-0.13l0.11-.6a0.8,0.8,0,0,1-.05-0.14L32,132.3V132l0.07-.25v0h0l-0.38.27a0.13,0.13,0,0,1-.08-0.12v-0.14c0-.11.46-0.16,0.49-0.28h0l-0.18,0a0.88,0.88,0,0,1-.2-0.17V131.2a5,5,0,0,1,.3-0.46c0.1-.11.17-0.21,0.18-0.22s0.16,0,.16-0.13a0.14,0.14,0,0,0-.08,0V130.2A0.24,0.24,0,0,1,32.36,130Z" transform="translate(-2.77 -19.9)"/><path class="cls-2" d="M34.74,130h0.08a0.19,0.19,0,0,1,.17.18v0.12l-0.05,0v0.09a0.15,0.15,0,0,1,0,.06H35a0.24,0.24,0,0,1,.07.08,1.32,1.32,0,0,1,.27.57,1.43,1.43,0,0,0,.23-0.16h0.09l0,0.07a1,1,0,0,0,.51-0.23h0a0.84,0.84,0,0,1,.05.08l-0.7.24a0.3,0.3,0,0,1,0,.06,0.39,0.39,0,0,1-.22.24l-0.14-.08a0.13,0.13,0,0,0-.15.16s0.16,0.12.16,0.15a2,2,0,0,1-.05.29v0.21s0,0.06,0,.09l0,0.15a0.54,0.54,0,0,1,.05.1v0.19a1.67,1.67,0,0,0,.14.47,0.48,0.48,0,0,0-.06.06,0.81,0.81,0,0,0,.22.27s0,0-.06.05l-0.23-.05v-0.15a0.49,0.49,0,0,1-.05-0.16c-0.11,0-.17-0.07-0.24-0.43l0-.16c-0.12-.31-0.05-0.54-0.21-0.54a0.82,0.82,0,0,0-.21.45l0,0.33a1,1,0,0,0-.1.15v0.09a1.1,1.1,0,0,0-.07.18v0.17l-0.31.05a0.1,0.1,0,0,1,0-.08,0.45,0.45,0,0,1,.19-0.13l0.11-.6a0.78,0.78,0,0,1-.05-0.14l0.08-.27V132l0.07-.25v0h0L34,132a0.13,0.13,0,0,1-.08-0.12v-0.14c0-.11.46-0.16,0.49-0.28h0l-0.18,0a0.88,0.88,0,0,1-.2-0.17V131.2a4.88,4.88,0,0,1,.3-0.46c0.1-.11.17-0.21,0.18-0.22s0.16,0,.16-0.13a0.14,0.14,0,0,0-.08,0V130.2A0.24,0.24,0,0,1,34.74,130Z" transform="translate(-2.77 -19.9)"/><path class="cls-2" d="M25.23,142.6h0.08a0.19,0.19,0,0,1,.18.18v0.12l-0.05,0V143a0.16,0.16,0,0,1,0,.06h0.09a0.25,0.25,0,0,1,.07.08,1.31,1.31,0,0,1,.27.57,1.45,1.45,0,0,0,.23-0.16h0.09l0,0.07a1,1,0,0,0,.51-0.23h0a0.74,0.74,0,0,1,.05.08l-0.7.24a0.26,0.26,0,0,1,0,.06,0.4,0.4,0,0,1-.22.24L25.75,144a0.13,0.13,0,0,0-.15.16s0.16,0.12.16,0.15a2,2,0,0,1-.05.29v0.21s0,0.06,0,.09l0,0.15a0.56,0.56,0,0,1,.05.11v0.19a1.65,1.65,0,0,0,.14.47,0.48,0.48,0,0,0-.06.06,0.8,0.8,0,0,0,.22.27s0,0-.07.05l-0.23-.05v-0.15a0.51,0.51,0,0,1-.05-0.16c-0.11,0-.17-0.07-0.24-0.43l0-.16c-0.12-.31-0.05-0.54-0.21-0.54a0.81,0.81,0,0,0-.21.45l0,0.33a0.92,0.92,0,0,0-.1.15v0.09a1.11,1.11,0,0,0-.07.18V146l-0.31.05a0.1,0.1,0,0,1,0-.08,0.47,0.47,0,0,1,.19-0.13l0.11-.6a0.76,0.76,0,0,1-.05-0.14l0.08-.27V144.6l0.07-.25v0h0l-0.38.27a0.13,0.13,0,0,1-.08-0.12v-0.14c0-.11.46-0.17,0.49-0.28h0l-0.18,0a0.87,0.87,0,0,1-.2-0.17v-0.14a4.8,4.8,0,0,1,.3-0.46l0.18-.22c0.05,0,.16,0,0.16-0.13a0.14,0.14,0,0,0-.08,0v-0.16A0.24,0.24,0,0,1,25.23,142.6Z" transform="translate(-2.77 -19.9)"/><path class="cls-2" d="M27.61,142.6h0.08a0.19,0.19,0,0,1,.17.18v0.12l-0.05,0V143a0.15,0.15,0,0,1,0,.06h0.09a0.27,0.27,0,0,1,.07.08,1.34,1.34,0,0,1,.27.57,1.51,1.51,0,0,0,.23-0.16h0.09a0.3,0.3,0,0,0,0,.07,1,1,0,0,0,.51-0.23h0a0.72,0.72,0,0,1,.05.08l-0.7.24a0.33,0.33,0,0,1,0,.06,0.4,0.4,0,0,1-.22.24L28.12,144a0.13,0.13,0,0,0-.16.16s0.16,0.12.16,0.15a2,2,0,0,1-.05.29v0.21l0,0.09,0,0.15a0.56,0.56,0,0,1,.05.11v0.19a1.65,1.65,0,0,0,.14.47,0.48,0.48,0,0,0-.06.06,0.8,0.8,0,0,0,.22.27s0,0-.07.05l-0.23-.05v-0.15a0.51,0.51,0,0,1-.05-0.16c-0.11,0-.17-0.07-0.25-0.43l0-.16c-0.12-.31-0.05-0.54-0.21-0.54a0.81,0.81,0,0,0-.21.45l0,0.33a0.88,0.88,0,0,0-.1.15v0.09a1.11,1.11,0,0,0-.07.18V146l-0.31.05a0.1,0.1,0,0,1,0-.08,0.46,0.46,0,0,1,.19-0.13l0.11-.6a0.76,0.76,0,0,1-.05-0.14l0.08-.27V144.6l0.07-.25v0h0l-0.38.27a0.13,0.13,0,0,1-.08-0.12v-0.14c0-.11.46-0.17,0.49-0.28h0l-0.18,0a0.88,0.88,0,0,1-.2-0.17v-0.14a4.76,4.76,0,0,1,.3-0.46l0.18-.22c0.05,0,.16,0,0.16-0.13a0.15,0.15,0,0,0-.08,0v-0.16A0.24,0.24,0,0,1,27.61,142.6Z" transform="translate(-2.77 -19.9)"/><path class="cls-2" d="M30,142.6h0.08a0.19,0.19,0,0,1,.17.18v0.12l-0.05,0V143a0.16,0.16,0,0,1,0,.06h0.09a0.26,0.26,0,0,1,.07.08,1.33,1.33,0,0,1,.27.57,1.51,1.51,0,0,0,.23-0.16h0.09l0,0.07a1,1,0,0,0,.51-0.23h0a0.72,0.72,0,0,1,.05.08l-0.7.24a0.31,0.31,0,0,1,0,.06,0.4,0.4,0,0,1-.22.24L30.5,144a0.13,0.13,0,0,0-.16.16s0.16,0.12.16,0.15a2.06,2.06,0,0,1-.05.29v0.21l0,0.09,0,0.15a0.55,0.55,0,0,1,.05.11v0.19a1.65,1.65,0,0,0,.14.47,0.48,0.48,0,0,0-.06.06,0.8,0.8,0,0,0,.22.27s0,0-.07.05l-0.23-.05v-0.15a0.53,0.53,0,0,1-.05-0.16c-0.11,0-.17-0.07-0.24-0.43l0-.16c-0.12-.31-0.05-0.54-0.21-0.54a0.82,0.82,0,0,0-.21.45l0,0.33a0.92,0.92,0,0,0-.1.15v0.09a1.11,1.11,0,0,0-.07.18V146l-0.31.05a0.1,0.1,0,0,1,0-.08,0.47,0.47,0,0,1,.19-0.13l0.11-.6a0.81,0.81,0,0,1-.05-0.14l0.08-.27V144.6l0.07-.25v0h0l-0.38.27a0.13,0.13,0,0,1-.08-0.12v-0.14c0-.11.46-0.17,0.49-0.28h0l-0.18,0a0.86,0.86,0,0,1-.2-0.17v-0.14a4.78,4.78,0,0,1,.3-0.46l0.18-.22c0.05,0,.16,0,0.16-0.13a0.15,0.15,0,0,0-.08,0v-0.16A0.24,0.24,0,0,1,30,142.6Z" transform="translate(-2.77 -19.9)"/><path class="cls-2" d="M32.36,142.6h0.08a0.19,0.19,0,0,1,.17.18v0.12l-0.05,0V143a0.15,0.15,0,0,1,0,.06h0.09a0.24,0.24,0,0,1,.07.08,1.32,1.32,0,0,1,.27.57,1.45,1.45,0,0,0,.23-0.16h0.09l0,0.07a1,1,0,0,0,.51-0.23h0s0,0,.05.08l-0.7.24a0.33,0.33,0,0,1,0,.06A0.4,0.4,0,0,1,33,144L32.88,144a0.13,0.13,0,0,0-.16.16s0.16,0.12.16,0.15a2,2,0,0,1-.05.29v0.21s0,0.06,0,.09l0,0.15a0.61,0.61,0,0,1,.05.11v0.19a1.66,1.66,0,0,0,.14.47,0.48,0.48,0,0,0-.06.06,0.8,0.8,0,0,0,.22.27s0,0-.06.05l-0.23-.05v-0.15a0.5,0.5,0,0,1-.05-0.16c-0.11,0-.17-0.07-0.24-0.43l0-.16c-0.12-.31-0.05-0.54-0.21-0.54a0.81,0.81,0,0,0-.21.45l0,0.33a0.88,0.88,0,0,0-.1.15v0.09a1.1,1.1,0,0,0-.07.18V146l-0.31.05a0.1,0.1,0,0,1,0-.08,0.45,0.45,0,0,1,.19-0.13l0.11-.6a0.8,0.8,0,0,1-.05-0.14l0.08-.27V144.6l0.07-.25v0h0l-0.38.27a0.13,0.13,0,0,1-.08-0.12v-0.14c0-.11.46-0.17,0.49-0.28h0l-0.18,0a0.88,0.88,0,0,1-.2-0.17v-0.14a4.67,4.67,0,0,1,.3-0.46l0.18-.22c0.05,0,.16,0,0.16-0.13a0.15,0.15,0,0,0-.08,0v-0.16A0.24,0.24,0,0,1,32.36,142.6Z" transform="translate(-2.77 -19.9)"/><path class="cls-2" d="M34.74,142.6h0.08a0.19,0.19,0,0,1,.17.18v0.12l-0.05,0V143a0.16,0.16,0,0,1,0,.06H35a0.24,0.24,0,0,1,.07.08,1.31,1.31,0,0,1,.27.57,1.43,1.43,0,0,0,.23-0.16h0.09l0,0.07a1,1,0,0,0,.51-0.23h0a0.85,0.85,0,0,1,.05.08l-0.7.24a0.27,0.27,0,0,1,0,.06,0.4,0.4,0,0,1-.22.24L35.26,144a0.13,0.13,0,0,0-.15.16s0.16,0.12.16,0.15a2,2,0,0,1-.05.29v0.21s0,0.06,0,.09l0,0.15a0.58,0.58,0,0,1,.05.11v0.19a1.66,1.66,0,0,0,.14.47,0.48,0.48,0,0,0-.06.06,0.8,0.8,0,0,0,.22.27s0,0-.06.05l-0.23-.05v-0.15a0.5,0.5,0,0,1-.05-0.16c-0.11,0-.17-0.07-0.24-0.43l0-.16c-0.12-.31-0.05-0.54-0.21-0.54a0.82,0.82,0,0,0-.21.45l0,0.33a0.92,0.92,0,0,0-.1.15v0.09a1.1,1.1,0,0,0-.07.18V146l-0.31.05a0.1,0.1,0,0,1,0-.08,0.46,0.46,0,0,1,.19-0.13l0.11-.6a0.78,0.78,0,0,1-.05-0.14l0.08-.27V144.6l0.07-.25v0h0L34,144.6a0.13,0.13,0,0,1-.08-0.12v-0.14c0-.11.46-0.17,0.49-0.28h0l-0.18,0a0.88,0.88,0,0,1-.2-0.17v-0.14a4.56,4.56,0,0,1,.3-0.46l0.18-.22c0.05,0,.16,0,0.16-0.13a0.15,0.15,0,0,0-.08,0v-0.16A0.24,0.24,0,0,1,34.74,142.6Z" transform="translate(-2.77 -19.9)"/><path class="cls-2" d="M25.23,138.78h0.08a0.19,0.19,0,0,1,.18.18v0.12l-0.05,0v0.09a0.15,0.15,0,0,1,0,.06h0.09a0.25,0.25,0,0,1,.07.08,1.31,1.31,0,0,1,.27.57,1.47,1.47,0,0,0,.23-0.16h0.09l0,0.06a1,1,0,0,0,.51-0.23h0s0,0,.05.08l-0.7.24a0.26,0.26,0,0,1,0,.06,0.39,0.39,0,0,1-.22.24l-0.14-.08a0.13,0.13,0,0,0-.15.16,1.87,1.87,0,0,1,.16.15,2,2,0,0,1-.05.29v0.21s0,0.06,0,.09l0,0.15a0.53,0.53,0,0,1,.05.1v0.19a1.65,1.65,0,0,0,.14.47,0.41,0.41,0,0,0-.06.06,0.82,0.82,0,0,0,.22.27s0,0-.07.05l-0.23-.05v-0.15A0.5,0.5,0,0,1,25.7,142c-0.11,0-.17-0.07-0.24-0.43l0-.16c-0.12-.31-0.05-0.54-0.21-0.54a0.81,0.81,0,0,0-.21.45l0,0.33a1,1,0,0,0-.1.15v0.09a1.16,1.16,0,0,0-.07.18v0.17l-0.31.05a0.1,0.1,0,0,1,0-.08A0.47,0.47,0,0,1,24.7,142l0.11-.6a0.8,0.8,0,0,1-.05-0.14l0.08-.27v-0.26l0.07-.25v0h0l-0.38.27a0.13,0.13,0,0,1-.08-0.12v-0.14c0-.11.46-0.16,0.49-0.28h0l-0.18,0a0.87,0.87,0,0,1-.2-0.17v-0.14a5.16,5.16,0,0,1,.3-0.46l0.18-.22c0.05,0,.16,0,0.16-0.13l-0.08,0v-0.16A0.24,0.24,0,0,1,25.23,138.78Z" transform="translate(-2.77 -19.9)"/><path class="cls-2" d="M27.61,138.78h0.08a0.19,0.19,0,0,1,.17.18v0.12l-0.05,0v0.09a0.14,0.14,0,0,1,0,.06h0.09a0.27,0.27,0,0,1,.07.08,1.34,1.34,0,0,1,.27.57,1.53,1.53,0,0,0,.23-0.16h0.09a0.33,0.33,0,0,0,0,.06,1,1,0,0,0,.51-0.23h0s0,0,.05.08l-0.7.24a0.33,0.33,0,0,1,0,.06,0.39,0.39,0,0,1-.22.24l-0.14-.08a0.13,0.13,0,0,0-.16.16,1.87,1.87,0,0,1,.16.15,2,2,0,0,1-.05.29v0.21l0,0.09,0,0.15a0.52,0.52,0,0,1,.05.1v0.19a1.65,1.65,0,0,0,.14.47,0.41,0.41,0,0,0-.06.06,0.82,0.82,0,0,0,.22.27s0,0-.07.05l-0.23-.05v-0.15a0.5,0.5,0,0,1-.05-0.16c-0.11,0-.17-0.07-0.25-0.43l0-.16c-0.12-.31-0.05-0.54-0.21-0.54a0.81,0.81,0,0,0-.21.45l0,0.33a1,1,0,0,0-.1.15v0.09a1.16,1.16,0,0,0-.07.18v0.17l-0.31.05a0.1,0.1,0,0,1,0-.08,0.46,0.46,0,0,1,.19-0.13l0.11-.6a0.8,0.8,0,0,1-.05-0.14l0.08-.27v-0.26l0.07-.25v0h0l-0.38.27a0.13,0.13,0,0,1-.08-0.12v-0.14c0-.11.46-0.16,0.49-0.28h0l-0.18,0a0.88,0.88,0,0,1-.2-0.17v-0.14a5.11,5.11,0,0,1,.3-0.46l0.18-.22c0.05,0,.16,0,0.16-0.13l-0.08,0v-0.16A0.24,0.24,0,0,1,27.61,138.78Z" transform="translate(-2.77 -19.9)"/><path class="cls-2" d="M30,138.78h0.08a0.19,0.19,0,0,1,.17.18v0.12l-0.05,0v0.09a0.15,0.15,0,0,1,0,.06h0.09a0.26,0.26,0,0,1,.07.08,1.33,1.33,0,0,1,.27.57,1.54,1.54,0,0,0,.23-0.16h0.09l0,0.06a1,1,0,0,0,.51-0.23h0s0,0,.05.08l-0.7.24a0.31,0.31,0,0,1,0,.06,0.39,0.39,0,0,1-.22.24l-0.14-.08a0.13,0.13,0,0,0-.16.16,1.87,1.87,0,0,1,.16.15,2.07,2.07,0,0,1-.05.29v0.21l0,0.09,0,0.15a0.51,0.51,0,0,1,.05.1v0.19a1.65,1.65,0,0,0,.14.47,0.41,0.41,0,0,0-.06.06,0.82,0.82,0,0,0,.22.27s0,0-.07.05l-0.23-.05v-0.15a0.52,0.52,0,0,1-.05-0.16c-0.11,0-.17-0.07-0.24-0.43l0-.16c-0.12-.31-0.05-0.54-0.21-0.54a0.82,0.82,0,0,0-.21.45l0,0.33a1,1,0,0,0-.1.15v0.09a1.16,1.16,0,0,0-.07.18v0.17l-0.31.05a0.1,0.1,0,0,1,0-.08,0.47,0.47,0,0,1,.19-0.13l0.11-.6a0.87,0.87,0,0,1-.05-0.14l0.08-.27v-0.26l0.07-.25v0h0l-0.38.27a0.13,0.13,0,0,1-.08-0.12v-0.14c0-.11.46-0.16,0.49-0.28h0l-0.18,0a0.86,0.86,0,0,1-.2-0.17v-0.14a5.13,5.13,0,0,1,.3-0.46l0.18-.22c0.05,0,.16,0,0.16-0.13l-0.08,0v-0.16A0.24,0.24,0,0,1,30,138.78Z" transform="translate(-2.77 -19.9)"/><path class="cls-2" d="M32.36,138.78h0.08a0.19,0.19,0,0,1,.17.18v0.12l-0.05,0v0.09a0.14,0.14,0,0,1,0,.06h0.09a0.24,0.24,0,0,1,.07.08,1.32,1.32,0,0,1,.27.57,1.47,1.47,0,0,0,.23-0.16h0.09l0,0.06a1,1,0,0,0,.51-0.23h0s0,0,.05.08l-0.7.24a0.33,0.33,0,0,1,0,.06,0.39,0.39,0,0,1-.22.24l-0.14-.08a0.13,0.13,0,0,0-.16.16,1.87,1.87,0,0,1,.16.15,2,2,0,0,1-.05.29v0.21s0,0.06,0,.09l0,0.15a0.56,0.56,0,0,1,.05.1v0.19a1.66,1.66,0,0,0,.14.47A0.41,0.41,0,0,0,33,142a0.82,0.82,0,0,0,.22.27s0,0-.06.05l-0.23-.05v-0.15a0.49,0.49,0,0,1-.05-0.16c-0.11,0-.17-0.07-0.24-0.43l0-.16c-0.12-.31-0.05-0.54-0.21-0.54a0.81,0.81,0,0,0-.21.45l0,0.33a1,1,0,0,0-.1.15v0.09A1.15,1.15,0,0,0,32,142v0.17l-0.31.05a0.1,0.1,0,0,1,0-.08,0.45,0.45,0,0,1,.19-0.13l0.11-.6a0.85,0.85,0,0,1-.05-0.14L32,141v-0.26l0.07-.25v0h0l-0.38.27a0.13,0.13,0,0,1-.08-0.12v-0.14c0-.11.46-0.16,0.49-0.28h0l-0.18,0a0.88,0.88,0,0,1-.2-0.17v-0.14a5,5,0,0,1,.3-0.46c0.1-.11.17-0.21,0.18-0.22s0.16,0,.16-0.13l-0.08,0v-0.16A0.24,0.24,0,0,1,32.36,138.78Z" transform="translate(-2.77 -19.9)"/><path class="cls-2" d="M34.74,138.78h0.08A0.19,0.19,0,0,1,35,139v0.12l-0.05,0v0.09a0.15,0.15,0,0,1,0,.06H35a0.24,0.24,0,0,1,.07.08,1.31,1.31,0,0,1,.27.57,1.45,1.45,0,0,0,.23-0.16h0.09l0,0.06a1,1,0,0,0,.51-0.23h0s0,0,.05.08l-0.7.24a0.27,0.27,0,0,1,0,.06,0.39,0.39,0,0,1-.22.24l-0.14-.08a0.13,0.13,0,0,0-.15.16,1.87,1.87,0,0,1,.16.15,2,2,0,0,1-.05.29v0.21s0,0.06,0,.09l0,0.15a0.54,0.54,0,0,1,.05.1v0.19a1.66,1.66,0,0,0,.14.47,0.41,0.41,0,0,0-.06.06,0.82,0.82,0,0,0,.22.27s0,0-.06.05l-0.23-.05v-0.15a0.49,0.49,0,0,1-.05-0.16c-0.11,0-.17-0.07-0.24-0.43l0-.16c-0.12-.31-0.05-0.54-0.21-0.54a0.82,0.82,0,0,0-.21.45l0,0.33a1,1,0,0,0-.1.15v0.09a1.15,1.15,0,0,0-.07.18v0.17l-0.31.05a0.1,0.1,0,0,1,0-.08,0.46,0.46,0,0,1,.19-0.13l0.11-.6a0.83,0.83,0,0,1-.05-0.14l0.08-.27v-0.26l0.07-.25v0h0l-0.38.27a0.13,0.13,0,0,1-.08-0.12v-0.14c0-.11.46-0.16,0.49-0.28h0l-0.18,0a0.88,0.88,0,0,1-.2-0.17v-0.14a4.88,4.88,0,0,1,.3-0.46c0.1-.11.17-0.21,0.18-0.22s0.16,0,.16-0.13l-0.08,0v-0.16A0.24,0.24,0,0,1,34.74,138.78Z" transform="translate(-2.77 -19.9)"/><path class="cls-2" d="M25.23,151.34h0.08a0.19,0.19,0,0,1,.18.18v0.12l-0.05,0v0.09a0.16,0.16,0,0,1,0,.06h0.09a0.25,0.25,0,0,1,.07.08,1.31,1.31,0,0,1,.27.57,1.45,1.45,0,0,0,.23-0.16h0.09l0,0.07a1,1,0,0,0,.51-0.23h0a0.73,0.73,0,0,1,.05.08l-0.7.24a0.27,0.27,0,0,1,0,.06,0.4,0.4,0,0,1-.22.24l-0.14-.08a0.13,0.13,0,0,0-.15.16s0.16,0.12.16,0.15a2,2,0,0,1-.05.29v0.21s0,0.06,0,.09l0,0.15a0.56,0.56,0,0,1,.05.11V154a1.65,1.65,0,0,0,.14.47,0.48,0.48,0,0,0-.06.06,0.8,0.8,0,0,0,.22.27s0,0-.07.05l-0.23-.05v-0.15a0.51,0.51,0,0,1-.05-0.16c-0.11,0-.17-0.07-0.24-0.43l0-.16c-0.12-.31-0.05-0.54-0.21-0.54a0.81,0.81,0,0,0-.21.45l0,0.33a0.92,0.92,0,0,0-.1.15v0.09a1.11,1.11,0,0,0-.07.18v0.17l-0.31.05a0.1,0.1,0,0,1,0-.08,0.47,0.47,0,0,1,.19-0.13l0.11-.6a0.76,0.76,0,0,1-.05-0.14l0.08-.27v-0.26l0.07-.25v0h0l-0.38.27a0.13,0.13,0,0,1-.08-0.12v-0.14c0-.11.46-0.17,0.49-0.28h0l-0.18,0a0.87,0.87,0,0,1-.2-0.17v-0.14a4.8,4.8,0,0,1,.3-0.46l0.18-.22c0.05,0,.16,0,0.16-0.13a0.14,0.14,0,0,0-.08,0v-0.16A0.24,0.24,0,0,1,25.23,151.34Z" transform="translate(-2.77 -19.9)"/><path class="cls-2" d="M27.61,151.34h0.08a0.19,0.19,0,0,1,.17.18v0.12l-0.05,0v0.09a0.15,0.15,0,0,1,0,.06h0.09a0.27,0.27,0,0,1,.07.08,1.34,1.34,0,0,1,.27.57,1.51,1.51,0,0,0,.23-0.16h0.09a0.3,0.3,0,0,0,0,.07,1,1,0,0,0,.51-0.23h0a0.71,0.71,0,0,1,.05.08l-0.7.24a0.33,0.33,0,0,1,0,.06,0.4,0.4,0,0,1-.22.24l-0.14-.08a0.13,0.13,0,0,0-.16.16s0.16,0.12.16,0.15a2,2,0,0,1-.05.29v0.21l0,0.09,0,0.15a0.56,0.56,0,0,1,.05.11V154a1.65,1.65,0,0,0,.14.47,0.48,0.48,0,0,0-.06.06,0.8,0.8,0,0,0,.22.27s0,0-.07.05l-0.23-.05v-0.15a0.51,0.51,0,0,1-.05-0.16c-0.11,0-.17-0.07-0.25-0.43l0-.16c-0.12-.31-0.05-0.54-0.21-0.54a0.81,0.81,0,0,0-.21.45l0,0.33a0.88,0.88,0,0,0-.1.15v0.09a1.11,1.11,0,0,0-.07.18v0.17l-0.31.05a0.1,0.1,0,0,1,0-.08,0.46,0.46,0,0,1,.19-0.13l0.11-.6a0.76,0.76,0,0,1-.05-0.14l0.08-.27v-0.26l0.07-.25v0h0l-0.38.27a0.13,0.13,0,0,1-.08-0.12v-0.14c0-.11.46-0.17,0.49-0.28h0l-0.18,0a0.88,0.88,0,0,1-.2-0.17v-0.14a4.76,4.76,0,0,1,.3-0.46l0.18-.22c0.05,0,.16,0,0.16-0.13a0.15,0.15,0,0,0-.08,0v-0.16A0.24,0.24,0,0,1,27.61,151.34Z" transform="translate(-2.77 -19.9)"/><path class="cls-2" d="M30,151.34h0.08a0.19,0.19,0,0,1,.17.18v0.12l-0.05,0v0.09a0.16,0.16,0,0,1,0,.06h0.09a0.26,0.26,0,0,1,.07.08,1.33,1.33,0,0,1,.27.57,1.51,1.51,0,0,0,.23-0.16h0.09l0,0.07a1,1,0,0,0,.51-0.23h0a0.72,0.72,0,0,1,.05.08l-0.7.24a0.31,0.31,0,0,1,0,.06,0.4,0.4,0,0,1-.22.24l-0.14-.08a0.13,0.13,0,0,0-.16.16s0.16,0.12.16,0.15a2.06,2.06,0,0,1-.05.29v0.21l0,0.09,0,0.15a0.55,0.55,0,0,1,.05.11V154a1.65,1.65,0,0,0,.14.47,0.48,0.48,0,0,0-.06.06,0.8,0.8,0,0,0,.22.27s0,0-.07.05l-0.23-.05v-0.15a0.53,0.53,0,0,1-.05-0.16c-0.11,0-.17-0.07-0.24-0.43l0-.16c-0.12-.31-0.05-0.54-0.21-0.54a0.82,0.82,0,0,0-.21.45l0,0.33a0.92,0.92,0,0,0-.1.15v0.09a1.11,1.11,0,0,0-.07.18v0.17l-0.31.05a0.1,0.1,0,0,1,0-.08,0.47,0.47,0,0,1,.19-0.13l0.11-.6a0.82,0.82,0,0,1-.05-0.14l0.08-.27v-0.26l0.07-.25v0h0l-0.38.27a0.13,0.13,0,0,1-.08-0.12v-0.14c0-.11.46-0.17,0.49-0.28h0l-0.18,0a0.86,0.86,0,0,1-.2-0.17v-0.14a4.78,4.78,0,0,1,.3-0.46l0.18-.22c0.05,0,.16,0,0.16-0.13a0.15,0.15,0,0,0-.08,0v-0.16A0.24,0.24,0,0,1,30,151.34Z" transform="translate(-2.77 -19.9)"/><path class="cls-2" d="M32.36,151.34h0.08a0.19,0.19,0,0,1,.17.18v0.12l-0.05,0v0.09a0.15,0.15,0,0,1,0,.06h0.09a0.24,0.24,0,0,1,.07.08,1.32,1.32,0,0,1,.27.57,1.45,1.45,0,0,0,.23-0.16h0.09l0,0.07a1,1,0,0,0,.51-0.23h0s0,0,.05.08l-0.7.24a0.33,0.33,0,0,1,0,.06,0.4,0.4,0,0,1-.22.24l-0.14-.08a0.13,0.13,0,0,0-.16.16s0.16,0.12.16,0.15a2,2,0,0,1-.05.29v0.21s0,0.06,0,.09l0,0.15a0.61,0.61,0,0,1,.05.11V154a1.66,1.66,0,0,0,.14.47,0.48,0.48,0,0,0-.06.06,0.8,0.8,0,0,0,.22.27s0,0-.06.05l-0.23-.05v-0.15a0.5,0.5,0,0,1-.05-0.16c-0.11,0-.17-0.07-0.24-0.43l0-.16c-0.12-.31-0.05-0.54-0.21-0.54a0.81,0.81,0,0,0-.21.45l0,0.33a0.88,0.88,0,0,0-.1.15v0.09a1.1,1.1,0,0,0-.07.18v0.17l-0.31.05a0.1,0.1,0,0,1,0-.08,0.45,0.45,0,0,1,.19-0.13l0.11-.6a0.8,0.8,0,0,1-.05-0.14l0.08-.27v-0.26L32,153.1v0h0l-0.38.27a0.13,0.13,0,0,1-.08-0.12v-0.14c0-.11.46-0.17,0.49-0.28h0l-0.18,0a0.88,0.88,0,0,1-.2-0.17v-0.14a4.67,4.67,0,0,1,.3-0.46l0.18-.22c0.05,0,.16,0,0.16-0.13a0.15,0.15,0,0,0-.08,0v-0.16A0.24,0.24,0,0,1,32.36,151.34Z" transform="translate(-2.77 -19.9)"/><path class="cls-2" d="M34.74,151.34h0.08a0.19,0.19,0,0,1,.17.18v0.12l-0.05,0v0.09a0.16,0.16,0,0,1,0,.06H35a0.24,0.24,0,0,1,.07.08,1.31,1.31,0,0,1,.27.57,1.43,1.43,0,0,0,.23-0.16h0.09l0,0.07a1,1,0,0,0,.51-0.23h0a0.84,0.84,0,0,1,.05.08l-0.7.24a0.27,0.27,0,0,1,0,.06,0.4,0.4,0,0,1-.22.24l-0.14-.08a0.13,0.13,0,0,0-.15.16s0.16,0.12.16,0.15a2,2,0,0,1-.05.29v0.21s0,0.06,0,.09l0,0.15a0.58,0.58,0,0,1,.05.11V154a1.66,1.66,0,0,0,.14.47,0.48,0.48,0,0,0-.06.06,0.8,0.8,0,0,0,.22.27s0,0-.06.05l-0.23-.05v-0.15a0.5,0.5,0,0,1-.05-0.16c-0.11,0-.17-0.07-0.24-0.43l0-.16c-0.12-.31-0.05-0.54-0.21-0.54a0.81,0.81,0,0,0-.21.45l0,0.33a0.92,0.92,0,0,0-.1.15v0.09a1.1,1.1,0,0,0-.07.18v0.17l-0.31.05a0.1,0.1,0,0,1,0-.08,0.46,0.46,0,0,1,.19-0.13l0.11-.6a0.78,0.78,0,0,1-.05-0.14l0.08-.27v-0.26l0.07-.25v0h0l-0.38.27a0.13,0.13,0,0,1-.08-0.12v-0.14c0-.11.46-0.17,0.49-0.28h0l-0.18,0a0.88,0.88,0,0,1-.2-0.17v-0.14a4.56,4.56,0,0,1,.3-0.46l0.18-.22c0.05,0,.16,0,0.16-0.13a0.15,0.15,0,0,0-.08,0v-0.16A0.24,0.24,0,0,1,34.74,151.34Z" transform="translate(-2.77 -19.9)"/><path class="cls-2" d="M25.23,147.52h0.08a0.19,0.19,0,0,1,.18.18v0.12l-0.05,0v0.09a0.15,0.15,0,0,1,0,.06h0.09a0.25,0.25,0,0,1,.07.08,1.31,1.31,0,0,1,.27.57,1.47,1.47,0,0,0,.23-0.16h0.09l0,0.06a1,1,0,0,0,.51-0.23h0s0,0,.05.08l-0.7.24a0.27,0.27,0,0,1,0,.06,0.39,0.39,0,0,1-.22.24l-0.14-.08a0.13,0.13,0,0,0-.15.16,1.86,1.86,0,0,1,.16.15,2,2,0,0,1-.05.29v0.21s0,0.06,0,.09l0,0.15a0.53,0.53,0,0,1,.05.1v0.19a1.65,1.65,0,0,0,.14.47,0.41,0.41,0,0,0-.06.06,0.82,0.82,0,0,0,.22.27s0,0-.07.05L25.75,151v-0.15a0.5,0.5,0,0,1-.05-0.16c-0.11,0-.17-0.07-0.24-0.43l0-.16c-0.12-.31-0.05-0.54-0.21-0.54a0.81,0.81,0,0,0-.21.45l0,0.33a1,1,0,0,0-.1.15v0.09a1.16,1.16,0,0,0-.07.18V151l-0.31.05a0.1,0.1,0,0,1,0-.08,0.46,0.46,0,0,1,.19-0.13l0.11-.6a0.8,0.8,0,0,1-.05-0.14l0.08-.27v-0.26l0.07-.25v0h0l-0.38.27a0.13,0.13,0,0,1-.08-0.12v-0.14c0-.11.46-0.16,0.49-0.28h0l-0.18,0a0.87,0.87,0,0,1-.2-0.17v-0.14a5.16,5.16,0,0,1,.3-0.46L25,148c0.05,0,.16,0,0.16-0.13l-0.08,0v-0.16A0.24,0.24,0,0,1,25.23,147.52Z" transform="translate(-2.77 -19.9)"/><path class="cls-2" d="M27.61,147.52h0.08a0.19,0.19,0,0,1,.17.18v0.12l-0.05,0v0.09a0.14,0.14,0,0,1,0,.06h0.09a0.27,0.27,0,0,1,.07.08,1.34,1.34,0,0,1,.27.57,1.53,1.53,0,0,0,.23-0.16h0.09a0.33,0.33,0,0,0,0,.06,1,1,0,0,0,.51-0.23h0s0,0,.05.08l-0.7.24a0.33,0.33,0,0,1,0,.06,0.39,0.39,0,0,1-.22.24l-0.14-.08A0.13,0.13,0,0,0,28,149a1.86,1.86,0,0,1,.16.15,2,2,0,0,1-.05.29v0.21l0,0.09,0,0.15a0.52,0.52,0,0,1,.05.1v0.19a1.65,1.65,0,0,0,.14.47,0.41,0.41,0,0,0-.06.06,0.82,0.82,0,0,0,.22.27s0,0-.07.05L28.13,151v-0.15a0.5,0.5,0,0,1-.05-0.16c-0.11,0-.17-0.07-0.25-0.43l0-.16c-0.12-.31-0.05-0.54-0.21-0.54a0.81,0.81,0,0,0-.21.45l0,0.33a1,1,0,0,0-.1.15v0.09a1.16,1.16,0,0,0-.07.18V151l-0.31.05a0.1,0.1,0,0,1,0-.08,0.46,0.46,0,0,1,.19-0.13l0.11-.6a0.8,0.8,0,0,1-.05-0.14l0.08-.27v-0.26l0.07-.25v0h0l-0.38.27a0.13,0.13,0,0,1-.08-0.12v-0.14c0-.11.46-0.16,0.49-0.28h0l-0.18,0a0.88,0.88,0,0,1-.2-0.17v-0.14a5.11,5.11,0,0,1,.3-0.46l0.18-.22c0.05,0,.16,0,0.16-0.13l-0.08,0v-0.16A0.24,0.24,0,0,1,27.61,147.52Z" transform="translate(-2.77 -19.9)"/><path class="cls-2" d="M30,147.52h0.08a0.19,0.19,0,0,1,.17.18v0.12l-0.05,0v0.09a0.15,0.15,0,0,1,0,.06h0.09a0.26,0.26,0,0,1,.07.08,1.33,1.33,0,0,1,.27.57,1.54,1.54,0,0,0,.23-0.16h0.09l0,0.06a1,1,0,0,0,.51-0.23h0s0,0,.05.08l-0.7.24a0.31,0.31,0,0,1,0,.06,0.39,0.39,0,0,1-.22.24l-0.14-.08a0.13,0.13,0,0,0-.16.16,1.86,1.86,0,0,1,.16.15,2.07,2.07,0,0,1-.05.29v0.21l0,0.09,0,0.15a0.51,0.51,0,0,1,.05.1v0.19a1.65,1.65,0,0,0,.14.47,0.41,0.41,0,0,0-.06.06,0.82,0.82,0,0,0,.22.27s0,0-.07.05L30.51,151v-0.15a0.52,0.52,0,0,1-.05-0.16c-0.11,0-.17-0.07-0.24-0.43l0-.16c-0.12-.31-0.05-0.54-0.21-0.54a0.82,0.82,0,0,0-.21.45l0,0.33a1,1,0,0,0-.1.15v0.09a1.16,1.16,0,0,0-.07.18V151L29.3,151a0.1,0.1,0,0,1,0-.08,0.47,0.47,0,0,1,.19-0.13l0.11-.6a0.87,0.87,0,0,1-.05-0.14l0.08-.27v-0.26l0.07-.25v0h0l-0.38.27a0.13,0.13,0,0,1-.08-0.12v-0.14c0-.11.46-0.16,0.49-0.28h0l-0.18,0a0.86,0.86,0,0,1-.2-0.17v-0.14a5.13,5.13,0,0,1,.3-0.46l0.18-.22c0.05,0,.16,0,0.16-0.13l-0.08,0v-0.16A0.24,0.24,0,0,1,30,147.52Z" transform="translate(-2.77 -19.9)"/><path class="cls-2" d="M32.36,147.52h0.08a0.19,0.19,0,0,1,.17.18v0.12l-0.05,0v0.09a0.14,0.14,0,0,1,0,.06h0.09a0.24,0.24,0,0,1,.07.08,1.32,1.32,0,0,1,.27.57,1.47,1.47,0,0,0,.23-0.16h0.09l0,0.06a1,1,0,0,0,.51-0.23h0s0,0,.05.08l-0.7.24a0.33,0.33,0,0,1,0,.06A0.39,0.39,0,0,1,33,149l-0.14-.08a0.13,0.13,0,0,0-.16.16,1.86,1.86,0,0,1,.16.15,2,2,0,0,1-.05.29v0.21s0,0.06,0,.09l0,0.15a0.56,0.56,0,0,1,.05.1v0.19a1.66,1.66,0,0,0,.14.47,0.41,0.41,0,0,0-.06.06,0.82,0.82,0,0,0,.22.27s0,0-.06.05L32.88,151v-0.15a0.49,0.49,0,0,1-.05-0.16c-0.11,0-.17-0.07-0.24-0.43l0-.16c-0.12-.31-0.05-0.54-0.21-0.54a0.81,0.81,0,0,0-.21.45l0,0.33a1,1,0,0,0-.1.15v0.09a1.15,1.15,0,0,0-.07.18V151l-0.31.05a0.1,0.1,0,0,1,0-.08,0.45,0.45,0,0,1,.19-0.13l0.11-.6a0.85,0.85,0,0,1-.05-0.14l0.08-.27v-0.26l0.07-.25v0h0l-0.38.27a0.13,0.13,0,0,1-.08-0.12v-0.14c0-.11.46-0.16,0.49-0.28h0l-0.18,0a0.88,0.88,0,0,1-.2-0.17v-0.14a5,5,0,0,1,.3-0.46c0.1-.11.17-0.21,0.18-0.22s0.16,0,.16-0.13l-0.08,0v-0.16A0.24,0.24,0,0,1,32.36,147.52Z" transform="translate(-2.77 -19.9)"/><path class="cls-2" d="M34.74,147.52h0.08a0.19,0.19,0,0,1,.17.18v0.12l-0.05,0v0.09a0.15,0.15,0,0,1,0,.06H35a0.24,0.24,0,0,1,.07.08,1.31,1.31,0,0,1,.27.57,1.45,1.45,0,0,0,.23-0.16h0.09l0,0.06a1,1,0,0,0,.51-0.23h0s0,0,.05.08l-0.7.24a0.27,0.27,0,0,1,0,.06,0.39,0.39,0,0,1-.22.24l-0.14-.08a0.13,0.13,0,0,0-.15.16,1.86,1.86,0,0,1,.16.15,2,2,0,0,1-.05.29v0.21s0,0.06,0,.09l0,0.15a0.54,0.54,0,0,1,.05.1v0.19a1.66,1.66,0,0,0,.14.47,0.41,0.41,0,0,0-.06.06,0.82,0.82,0,0,0,.22.27s0,0-.06.05L35.26,151v-0.15a0.49,0.49,0,0,1-.05-0.16c-0.11,0-.17-0.07-0.24-0.43l0-.16c-0.12-.31-0.05-0.54-0.21-0.54a0.82,0.82,0,0,0-.21.45l0,0.33a1,1,0,0,0-.1.15v0.09a1.15,1.15,0,0,0-.07.18V151l-0.31.05a0.1,0.1,0,0,1,0-.08,0.46,0.46,0,0,1,.19-0.13l0.11-.6a0.83,0.83,0,0,1-.05-0.14l0.08-.27v-0.26l0.07-.25v0h0l-0.38.27a0.13,0.13,0,0,1-.08-0.12v-0.14c0-.11.46-0.16,0.49-0.28h0l-0.18,0a0.88,0.88,0,0,1-.2-0.17v-0.14a4.88,4.88,0,0,1,.3-0.46c0.1-.11.17-0.21,0.18-0.22s0.16,0,.16-0.13l-0.08,0v-0.16A0.24,0.24,0,0,1,34.74,147.52Z" transform="translate(-2.77 -19.9)"/><path class="cls-2" d="M25.23,160.09h0.08a0.19,0.19,0,0,1,.18.18v0.12l-0.05,0v0.09a0.14,0.14,0,0,1,0,.06h0.09a0.25,0.25,0,0,1,.07.08,1.32,1.32,0,0,1,.27.57,1.45,1.45,0,0,0,.23-0.16h0.09l0,0.07a1,1,0,0,0,.51-0.23h0a0.65,0.65,0,0,1,.05.08l-0.7.24a0.3,0.3,0,0,1,0,.06,0.4,0.4,0,0,1-.22.24l-0.14-.08a0.13,0.13,0,0,0-.15.16,2.1,2.1,0,0,1,.16.15,2,2,0,0,1-.05.29v0.21s0,0.06,0,.09l0,0.15a0.56,0.56,0,0,1,.05.1v0.19a1.67,1.67,0,0,0,.14.47,0.4,0.4,0,0,0-.06.06,0.79,0.79,0,0,0,.22.27s0,0-.07.05l-0.23-.05v-0.15a0.51,0.51,0,0,1-.05-0.16c-0.11,0-.17-0.07-0.24-0.43l0-.16c-0.12-.31-0.05-0.54-0.21-0.54a0.81,0.81,0,0,0-.21.45l0,0.33a0.92,0.92,0,0,0-.1.15v0.09a1.11,1.11,0,0,0-.07.18v0.17l-0.31.05a0.1,0.1,0,0,1,0-.08,0.45,0.45,0,0,1,.19-0.13l0.11-.6a0.76,0.76,0,0,1-.05-0.14l0.08-.27v-0.26l0.07-.25v0h0l-0.38.27a0.13,0.13,0,0,1-.08-0.12v-0.14c0-.11.46-0.16,0.49-0.28h0l-0.18,0a0.87,0.87,0,0,1-.2-0.18v-0.14a5,5,0,0,1,.3-0.46l0.18-.22c0.05,0,.16,0,0.16-0.13a0.13,0.13,0,0,0-.08,0v-0.16A0.24,0.24,0,0,1,25.23,160.09Z" transform="translate(-2.77 -19.9)"/><path class="cls-2" d="M25.23,164h0.08a0.19,0.19,0,0,1,.18.18v0.12l-0.05,0v0.09a0.14,0.14,0,0,1,0,.06h0.09a0.25,0.25,0,0,1,.07.08,1.32,1.32,0,0,1,.27.57,1.45,1.45,0,0,0,.23-0.16h0.09l0,0.07a1,1,0,0,0,.51-0.23h0a0.65,0.65,0,0,1,.05.08l-0.7.24a0.3,0.3,0,0,1,0,.06,0.4,0.4,0,0,1-.22.24l-0.14-.08a0.13,0.13,0,0,0-.15.16,2.1,2.1,0,0,1,.16.15,2,2,0,0,1-.05.29v0.21s0,0.06,0,.09l0,0.15a0.56,0.56,0,0,1,.05.1v0.19a1.67,1.67,0,0,0,.14.47,0.4,0.4,0,0,0-.06.06,0.79,0.79,0,0,0,.22.27s0,0-.07.05l-0.23-.05v-0.15a0.51,0.51,0,0,1-.05-0.16c-0.11,0-.17-0.07-0.24-0.43l0-.16c-0.12-.31-0.05-0.54-0.21-0.54a0.81,0.81,0,0,0-.21.45l0,0.33a0.92,0.92,0,0,0-.1.15v0.09a1.11,1.11,0,0,0-.07.18v0.17l-0.31.05a0.1,0.1,0,0,1,0-.08,0.45,0.45,0,0,1,.19-0.13l0.11-.6a0.76,0.76,0,0,1-.05-0.14l0.08-.27V166l0.07-.25v0h0l-0.38.27a0.13,0.13,0,0,1-.08-0.12v-0.14c0-.11.46-0.16,0.49-0.28h0l-0.18,0a0.87,0.87,0,0,1-.2-0.18V165.2a5,5,0,0,1,.3-0.46l0.18-.22c0.05,0,.16,0,0.16-0.13a0.13,0.13,0,0,0-.08,0V164.2A0.24,0.24,0,0,1,25.23,164Z" transform="translate(-2.77 -19.9)"/><path class="cls-2" d="M27.61,160.09h0.08a0.19,0.19,0,0,1,.17.18v0.12l-0.05,0v0.09a0.13,0.13,0,0,1,0,.06h0.09a0.27,0.27,0,0,1,.07.08,1.35,1.35,0,0,1,.27.57,1.51,1.51,0,0,0,.23-0.16h0.09l0,0.07a1,1,0,0,0,.51-0.23h0a0.63,0.63,0,0,1,.05.08l-0.7.24a0.39,0.39,0,0,1,0,.06,0.4,0.4,0,0,1-.22.24l-0.14-.08a0.13,0.13,0,0,0-.16.16,2.1,2.1,0,0,1,.16.15,2,2,0,0,1-.05.29v0.21s0,0.06,0,.09l0,0.15a0.56,0.56,0,0,1,.05.1v0.19a1.66,1.66,0,0,0,.14.47,0.4,0.4,0,0,0-.06.06,0.79,0.79,0,0,0,.22.27s0,0-.07.05l-0.23-.05v-0.15a0.51,0.51,0,0,1-.05-0.16c-0.11,0-.17-0.07-0.25-0.43l0-.16c-0.12-.31-0.05-0.54-0.21-0.54a0.81,0.81,0,0,0-.21.45l0,0.33a0.88,0.88,0,0,0-.1.15v0.09a1.11,1.11,0,0,0-.07.18v0.17l-0.31.05a0.1,0.1,0,0,1,0-.08,0.44,0.44,0,0,1,.19-0.13l0.11-.6a0.76,0.76,0,0,1-.05-0.14l0.08-.27v-0.26l0.07-.25v0h0l-0.38.27a0.13,0.13,0,0,1-.08-0.12v-0.14c0-.11.46-0.16,0.49-0.28h0l-0.18,0a0.88,0.88,0,0,1-.2-0.18v-0.14a4.92,4.92,0,0,1,.3-0.46l0.18-.22c0.05,0,.16,0,0.16-0.13a0.14,0.14,0,0,0-.08,0v-0.16A0.24,0.24,0,0,1,27.61,160.09Z" transform="translate(-2.77 -19.9)"/><path class="cls-2" d="M30,160.09h0.08a0.19,0.19,0,0,1,.17.18v0.12l-0.05,0v0.09a0.14,0.14,0,0,1,0,.06h0.09a0.26,0.26,0,0,1,.07.08,1.34,1.34,0,0,1,.27.57,1.51,1.51,0,0,0,.23-0.16h0.09l0,0.07a1,1,0,0,0,.51-0.23h0a0.64,0.64,0,0,1,.05.08l-0.7.24a0.36,0.36,0,0,1,0,.06,0.4,0.4,0,0,1-.22.24l-0.14-.08a0.13,0.13,0,0,0-.16.16,2.1,2.1,0,0,1,.16.15,2,2,0,0,1-.05.29v0.21s0,0.06,0,.09l0,0.15a0.55,0.55,0,0,1,.05.1v0.19a1.66,1.66,0,0,0,.14.47,0.4,0.4,0,0,0-.06.06,0.79,0.79,0,0,0,.22.27s0,0-.07.05l-0.23-.05v-0.15a0.53,0.53,0,0,1-.05-0.16c-0.11,0-.17-0.07-0.24-0.43l0-.16c-0.12-.31-0.05-0.54-0.21-0.54a0.82,0.82,0,0,0-.21.45l0,0.33a0.92,0.92,0,0,0-.1.15v0.09a1.11,1.11,0,0,0-.07.18v0.17l-0.31.05a0.1,0.1,0,0,1,0-.08,0.45,0.45,0,0,1,.19-0.13l0.11-.6a0.82,0.82,0,0,1-.05-0.14l0.08-.27v-0.26l0.07-.25v0h0l-0.38.27a0.13,0.13,0,0,1-.08-0.12v-0.14c0-.11.46-0.16,0.49-0.28h0l-0.18,0a0.86,0.86,0,0,1-.2-0.18v-0.14a5,5,0,0,1,.3-0.46l0.18-.22c0.05,0,.16,0,0.16-0.13a0.14,0.14,0,0,0-.08,0v-0.16A0.24,0.24,0,0,1,30,160.09Z" transform="translate(-2.77 -19.9)"/><path class="cls-2" d="M32.36,160.09h0.08a0.19,0.19,0,0,1,.17.18v0.12l-0.05,0v0.09a0.14,0.14,0,0,1,0,.06h0.09a0.24,0.24,0,0,1,.07.08,1.33,1.33,0,0,1,.27.57,1.45,1.45,0,0,0,.23-0.16h0.09l0,0.07a1,1,0,0,0,.51-0.23h0a1,1,0,0,1,.05.08l-0.7.24a0.39,0.39,0,0,1,0,.06,0.4,0.4,0,0,1-.22.24l-0.14-.08a0.13,0.13,0,0,0-.16.16,2.1,2.1,0,0,1,.16.15,2,2,0,0,1-.05.29v0.21s0,0.06,0,.09l0,0.15a0.61,0.61,0,0,1,.05.1v0.19a1.67,1.67,0,0,0,.14.47,0.4,0.4,0,0,0-.06.06,0.79,0.79,0,0,0,.22.27s0,0-.06.05l-0.23-.05v-0.15a0.5,0.5,0,0,1-.05-0.16c-0.11,0-.17-0.07-0.24-0.43l0-.16c-0.12-.31-0.05-0.54-0.21-0.54a0.81,0.81,0,0,0-.21.45l0,0.33a0.88,0.88,0,0,0-.1.15v0.09a1.1,1.1,0,0,0-.07.18v0.17l-0.31.05a0.1,0.1,0,0,1,0-.08,0.44,0.44,0,0,1,.19-0.13l0.11-.6a0.8,0.8,0,0,1-.05-0.14l0.08-.27v-0.26l0.07-.25v0h0l-0.38.27a0.13,0.13,0,0,1-.08-0.12v-0.14c0-.11.46-0.16,0.49-0.28h0l-0.18,0a0.88,0.88,0,0,1-.2-0.18v-0.14a4.83,4.83,0,0,1,.3-0.46c0.1-.11.17-0.21,0.18-0.22s0.16,0,.16-0.13a0.14,0.14,0,0,0-.08,0v-0.16A0.24,0.24,0,0,1,32.36,160.09Z" transform="translate(-2.77 -19.9)"/><path class="cls-2" d="M34.74,160.09h0.08a0.19,0.19,0,0,1,.17.18v0.12l-0.05,0v0.09a0.14,0.14,0,0,1,0,.06H35a0.24,0.24,0,0,1,.07.08,1.32,1.32,0,0,1,.27.57,1.43,1.43,0,0,0,.23-0.16h0.09l0,0.07a1,1,0,0,0,.51-0.23h0a0.73,0.73,0,0,1,.05.08l-0.7.24a0.3,0.3,0,0,1,0,.06,0.4,0.4,0,0,1-.22.24l-0.14-.08a0.13,0.13,0,0,0-.15.16,2.1,2.1,0,0,1,.16.15,2,2,0,0,1-.05.29v0.21s0,0.06,0,.09l0,0.15a0.58,0.58,0,0,1,.05.1v0.19a1.67,1.67,0,0,0,.14.47,0.4,0.4,0,0,0-.06.06,0.79,0.79,0,0,0,.22.27s0,0-.06.05l-0.23-.05v-0.15a0.5,0.5,0,0,1-.05-0.16c-0.11,0-.17-0.07-0.24-0.43l0-.16c-0.12-.31-0.05-0.54-0.21-0.54a0.82,0.82,0,0,0-.21.45l0,0.33a0.92,0.92,0,0,0-.1.15v0.09a1.1,1.1,0,0,0-.07.18v0.17l-0.31.05a0.1,0.1,0,0,1,0-.08,0.44,0.44,0,0,1,.19-0.13l0.11-.6a0.78,0.78,0,0,1-.05-0.14l0.08-.27v-0.26l0.07-.25v0h0l-0.38.27a0.13,0.13,0,0,1-.08-0.12v-0.14c0-.11.46-0.16,0.49-0.28h0l-0.18,0a0.88,0.88,0,0,1-.2-0.18v-0.14a4.71,4.71,0,0,1,.3-0.46c0.1-.11.17-0.21,0.18-0.22s0.16,0,.16-0.13a0.14,0.14,0,0,0-.08,0v-0.16A0.24,0.24,0,0,1,34.74,160.09Z" transform="translate(-2.77 -19.9)"/><path class="cls-2" d="M25.23,156.27h0.08a0.19,0.19,0,0,1,.18.18v0.12l-0.05,0v0.09a0.15,0.15,0,0,1,0,.06h0.09a0.25,0.25,0,0,1,.07.08,1.32,1.32,0,0,1,.27.57,1.45,1.45,0,0,0,.23-0.16h0.09l0,0.07a1,1,0,0,0,.51-0.23h0a0.74,0.74,0,0,1,.05.08l-0.7.24a0.3,0.3,0,0,1,0,.06,0.39,0.39,0,0,1-.22.24l-0.14-.08a0.13,0.13,0,0,0-.15.16s0.16,0.12.16,0.15a2,2,0,0,1-.05.29v0.21s0,0.06,0,.09l0,0.15a0.52,0.52,0,0,1,.05.1V159a1.67,1.67,0,0,0,.14.47,0.48,0.48,0,0,0-.06.06,0.81,0.81,0,0,0,.22.27s0,0-.07.05l-0.23-.05v-0.15a0.5,0.5,0,0,1-.05-0.16c-0.11,0-.17-0.07-0.24-0.43l0-.16c-0.12-.31-0.05-0.54-0.21-0.54a0.81,0.81,0,0,0-.21.45l0,0.33a1,1,0,0,0-.1.15v0.09a1.11,1.11,0,0,0-.07.18v0.17l-0.31.05a0.1,0.1,0,0,1,0-.08,0.46,0.46,0,0,1,.19-0.13l0.11-.6a0.76,0.76,0,0,1-.05-0.14l0.08-.27v-0.26L24.9,158v0h0l-0.38.27a0.13,0.13,0,0,1-.08-0.12V158c0-.11.46-0.16,0.49-0.28h0l-0.18,0a0.87,0.87,0,0,1-.2-0.17v-0.14a5.16,5.16,0,0,1,.3-0.46l0.18-.22c0.05,0,.16,0,0.16-0.13a0.14,0.14,0,0,0-.08,0v-0.16A0.24,0.24,0,0,1,25.23,156.27Z" transform="translate(-2.77 -19.9)"/><path class="cls-2" d="M27.61,156.27h0.08a0.19,0.19,0,0,1,.17.18v0.12l-0.05,0v0.09a0.14,0.14,0,0,1,0,.06h0.09a0.27,0.27,0,0,1,.07.08,1.35,1.35,0,0,1,.27.57,1.51,1.51,0,0,0,.23-0.16h0.09l0,0.07a1,1,0,0,0,.51-0.23h0a0.72,0.72,0,0,1,.05.08l-0.7.24a0.19,0.19,0,0,1-.19.3l-0.14-.08a0.13,0.13,0,0,0-.16.16s0.16,0.12.16,0.15a2,2,0,0,1-.05.29v0.21s0,0.06,0,.09l0,0.15a0.52,0.52,0,0,1,.05.1V159a1.66,1.66,0,0,0,.14.47,0.48,0.48,0,0,0-.06.06,0.81,0.81,0,0,0,.22.27s0,0-.07.05l-0.23-.05v-0.15a0.5,0.5,0,0,1-.05-0.16c-0.11,0-.17-0.07-0.25-0.43l0-.16c-0.12-.31-0.05-0.54-0.21-0.54a0.81,0.81,0,0,0-.21.45l0,0.33a1,1,0,0,0-.1.15v0.09a1.11,1.11,0,0,0-.07.18v0.17l-0.31.05a0.1,0.1,0,0,1,0-.08,0.46,0.46,0,0,1,.19-0.13l0.11-.6a0.76,0.76,0,0,1-.05-0.14l0.08-.27v-0.26l0.07-.25v0h0l-0.38.27a0.13,0.13,0,0,1-.08-0.12V158c0-.11.46-0.16,0.49-0.28h0l-0.18,0a0.88,0.88,0,0,1-.2-0.17v-0.14a5.1,5.1,0,0,1,.3-0.46l0.18-.22c0.05,0,.16,0,0.16-0.13a0.15,0.15,0,0,0-.08,0v-0.16A0.24,0.24,0,0,1,27.61,156.27Z" transform="translate(-2.77 -19.9)"/><path class="cls-2" d="M30,156.27h0.08a0.19,0.19,0,0,1,.17.18v0.12l-0.05,0v0.09a0.14,0.14,0,0,1,0,.06h0.09a0.26,0.26,0,0,1,.07.08,1.34,1.34,0,0,1,.27.57,1.51,1.51,0,0,0,.23-0.16h0.09l0,0.07a1,1,0,0,0,.51-0.23h0a0.72,0.72,0,0,1,.05.08l-0.7.24a0.36,0.36,0,0,1,0,.06,0.39,0.39,0,0,1-.22.24l-0.14-.08a0.13,0.13,0,0,0-.16.16s0.16,0.12.16,0.15a2,2,0,0,1-.05.29v0.21s0,0.06,0,.09l0,0.15a0.51,0.51,0,0,1,.05.1V159a1.66,1.66,0,0,0,.14.47,0.48,0.48,0,0,0-.06.06,0.81,0.81,0,0,0,.22.27s0,0-.07.05l-0.23-.05v-0.15a0.52,0.52,0,0,1-.05-0.16c-0.11,0-.17-0.07-0.24-0.43l0-.16c-0.12-.31-0.05-0.54-0.21-0.54a0.82,0.82,0,0,0-.21.45l0,0.33a1,1,0,0,0-.1.15v0.09a1.11,1.11,0,0,0-.07.18v0.17l-0.31.05a0.1,0.1,0,0,1,0-.08,0.46,0.46,0,0,1,.19-0.13l0.11-.6a0.82,0.82,0,0,1-.05-0.14l0.08-.27v-0.26l0.07-.25v0h0l-0.38.27a0.13,0.13,0,0,1-.08-0.12V158c0-.11.46-0.16,0.49-0.28h0l-0.18,0a0.86,0.86,0,0,1-.2-0.17v-0.14a5.13,5.13,0,0,1,.3-0.46l0.18-.22c0.05,0,.16,0,0.16-0.13a0.14,0.14,0,0,0-.08,0v-0.16A0.24,0.24,0,0,1,30,156.27Z" transform="translate(-2.77 -19.9)"/><path class="cls-2" d="M32.36,156.27h0.08a0.19,0.19,0,0,1,.17.18v0.12l-0.05,0v0.09a0.14,0.14,0,0,1,0,.06h0.09a0.24,0.24,0,0,1,.07.08,1.33,1.33,0,0,1,.27.57,1.45,1.45,0,0,0,.23-0.16h0.09l0,0.07a1,1,0,0,0,.51-0.23h0s0,0,.05.08l-0.7.24a0.19,0.19,0,0,1-.19.3l-0.14-.08a0.13,0.13,0,0,0-.16.16s0.16,0.12.16,0.15a2,2,0,0,1-.05.29v0.21s0,0.06,0,.09l0,0.15a0.56,0.56,0,0,1,.05.1V159a1.67,1.67,0,0,0,.14.47,0.48,0.48,0,0,0-.06.06,0.81,0.81,0,0,0,.22.27s0,0-.06.05l-0.23-.05v-0.15a0.49,0.49,0,0,1-.05-0.16c-0.11,0-.17-0.07-0.24-0.43l0-.16c-0.12-.31-0.05-0.54-0.21-0.54a0.81,0.81,0,0,0-.21.45l0,0.33a1,1,0,0,0-.1.15v0.09a1.1,1.1,0,0,0-.07.18v0.17l-0.31.05a0.1,0.1,0,0,1,0-.08,0.45,0.45,0,0,1,.19-0.13l0.11-.6a0.8,0.8,0,0,1-.05-0.14l0.08-.27v-0.26L32,158v0h0l-0.38.27a0.13,0.13,0,0,1-.08-0.12V158c0-.11.46-0.16,0.49-0.28h0l-0.18,0a0.88,0.88,0,0,1-.2-0.17v-0.14a5,5,0,0,1,.3-0.46c0.1-.11.17-0.21,0.18-0.22s0.16,0,.16-0.13a0.14,0.14,0,0,0-.08,0v-0.16A0.24,0.24,0,0,1,32.36,156.27Z" transform="translate(-2.77 -19.9)"/><path class="cls-2" d="M34.74,156.27h0.08a0.19,0.19,0,0,1,.17.18v0.12l-0.05,0v0.09a0.15,0.15,0,0,1,0,.06H35a0.24,0.24,0,0,1,.07.08,1.32,1.32,0,0,1,.27.57,1.43,1.43,0,0,0,.23-0.16h0.09l0,0.07a1,1,0,0,0,.51-0.23h0a0.85,0.85,0,0,1,.05.08l-0.7.24a0.3,0.3,0,0,1,0,.06,0.39,0.39,0,0,1-.22.24l-0.14-.08a0.13,0.13,0,0,0-.15.16s0.16,0.12.16,0.15a2,2,0,0,1-.05.29v0.21s0,0.06,0,.09l0,0.15a0.54,0.54,0,0,1,.05.1V159a1.67,1.67,0,0,0,.14.47,0.48,0.48,0,0,0-.06.06,0.81,0.81,0,0,0,.22.27s0,0-.06.05l-0.23-.05v-0.15a0.49,0.49,0,0,1-.05-0.16c-0.11,0-.17-0.07-0.24-0.43l0-.16c-0.12-.31-0.05-0.54-0.21-0.54a0.82,0.82,0,0,0-.21.45l0,0.33a1,1,0,0,0-.1.15v0.09a1.1,1.1,0,0,0-.07.18v0.17l-0.31.05a0.1,0.1,0,0,1,0-.08,0.45,0.45,0,0,1,.19-0.13l0.11-.6a0.78,0.78,0,0,1-.05-0.14l0.08-.27v-0.26l0.07-.25v0h0l-0.38.27a0.13,0.13,0,0,1-.08-0.12V158c0-.11.46-0.16,0.49-0.28h0l-0.18,0a0.88,0.88,0,0,1-.2-0.17v-0.14a4.88,4.88,0,0,1,.3-0.46c0.1-.11.17-0.21,0.18-0.22s0.16,0,.16-0.13a0.14,0.14,0,0,0-.08,0v-0.16A0.24,0.24,0,0,1,34.74,156.27Z" transform="translate(-2.77 -19.9)"/></svg>